<?xml version="1.0" encoding="UTF-8"?>
<!DOCTYPE svg PUBLIC "-//W3C//DTD SVG 1.1//EN" "http://www.w3.org/Graphics/SVG/1.1/DTD/svg11.dtd">
<!-- Creator: CorelDRAW -->
<svg xmlns="http://www.w3.org/2000/svg" xml:space="preserve" width="604.629mm" height="109.206mm" version="1.1" style="shape-rendering:geometricPrecision; text-rendering:geometricPrecision; image-rendering:optimizeQuality; fill-rule:evenodd; clip-rule:evenodd"
viewBox="0 0 333253.82 60191.27"
 xmlns:xlink="http://www.w3.org/1999/xlink"
 xmlns:xodm="http://www.corel.com/coreldraw/odm/2003">
 <defs>
  <style type="text/css">
   <![CDATA[
    .str0 {stroke:#FEFEFE;stroke-width:91.16;stroke-miterlimit:22.9256}
    .fil1 {fill:white}
    .fil3 {fill:black;fill-rule:nonzero}
    .fil2 {fill:#FEC300;fill-rule:nonzero}
    .fil0 {fill:white;fill-rule:nonzero}
   ]]>
  </style>
 </defs>
 <g id="Слой_x0020_1">
  <metadata id="CorelCorpID_0Corel-Layer"/>
  <g id="_1953744057424">
   <g id="_2514033576992">
    <path class="fil0" d="M196623.03 37304.84c-2110.71,-11528.34 3485.49,-23095.88 13836.65,-28594.41 12623.58,-6703.17 28275.95,-2658.02 36070.11,9322.06 -6157.9,-16906.01 -26662.67,-23387.83 -41417.46,-13092.57 -10384.5,7246.57 -13980.23,20955.24 -8489.19,32364.75l-0.11 0.17z"/>
    <path class="fil0" d="M192258.59 35105.5c3674.88,8361.48 10891.58,14643.95 19676.74,17130.94 7541.51,2134.52 15617.87,1268.69 22536.05,-2415.84l-2062.04 -14317.6c-1148.92,4069.35 -3654.1,7623.63 -7095.5,10075.4 -3349.91,2385.36 -7396.71,3591.93 -11505.91,3427.95 5060.24,-1794.39 9328.73,-5312.9 12052.29,-9938.44 1471.02,-2494.16 2434.19,-5223.72 3157.77,-7990.82 850.68,-3255.27 1376.66,-6604.63 1559.7,-9998.96l5789.83 11.02 3287.9 23163.62c2330.57,-2873.97 4047.08,-6193.4 5042.44,-9756.5 620.23,-2209.15 951.21,-4481.13 1075.22,-6759.61 124.01,-2241.39 47.35,-4495.29 -233.37,-6734.87l5783.99 30.48 4741.12 28179.11 -6625.85 133.38 -2301.19 -14397.96c-2056.03,11725.39 -11428.97,20794.52 -23218.4,22454.98 -14781.69,2084.31 -28641.87,-7675.72 -31661.07,-22296.29l0.28 0z"/>
    <path class="fil0" d="M259517.63 28801.27l0 20397.73 4916.66 0 -14 -20417.57 -4902.66 19.84zm0 0z"/>
    <path class="fil0" d="M259517.63 21144.84l0 4828.7 4916.66 0 -14 -4833.6 -4902.66 4.91zm0 0z"/>
    <path class="fil0" d="M283758.62 21081.35l4948.36 7.88 32.63 28291.87 -5142.81 0 -166.73 -15008.93c-1014.15,-1062.27 -2326.11,-1717.17 -3712.85,-1923.86 -925.09,-137.74 -1899.94,-74.13 -2797.25,332.74 -1950.81,883.47 -2849.22,3035.24 -3049.24,5197.21 -204.93,2222.05 291.02,4561.49 2035.91,5929.99 1173.11,920.62 2631.79,1206.84 4017.54,1077.1 1306.11,-123.35 2587.58,-618.47 3675.43,-1499.74l477.98 2877.5c-1156.91,1261.24 -2607.86,2130.55 -4171.65,2578.05 -2641.32,756.76 -5562.2,320.67 -7881.74,-1413.53 -2759.05,-2062.59 -3970.52,-5519.2 -3810.63,-8979.4 132.17,-2852.36 1185.62,-5629.22 3321.19,-7519.9 1883.74,-1667.95 4368.97,-2421.68 6885.67,-2456.24 956.61,-13.17 1912.45,78.32 2840.51,307.44 862.8,213.36 1691.21,541.64 2462.19,978.93l35.5 -8777.06 0 -0.06zm0 0z"/>
    <path class="fil0" d="M310530.86 42234.29c-807.47,1064.59 -1830.33,1912.29 -2987.24,2508.32 -2263,1164.02 -4981.15,1279.71 -7037.57,-81.85 -1603.36,-1061.89 -2502.87,-2854.13 -2896.29,-4739.35 -372.04,-1783.81 -286.94,-3667.55 633.24,-5242.24 1001.26,-1715.41 2859.03,-2750.89 4851.02,-2653.67 2485.06,122.8 4552.4,1952.58 4974.21,4403.91l-11465.79 297.69 77.38 2803.37 16012.34 40.51c566.66,-5934.51 -4060.14,-10985 -10021.17,-11008.37 -5964.83,-24.36 -10554.48,4976.8 -10176.54,10971.22 313.18,4987.82 4063.95,8975.43 9017.76,9688.92 2354.93,339.69 4720.72,-168.22 6683.22,-1410.67 1866.48,-1180.33 3299.58,-2983.16 4011.97,-5144.19l-1676.66 -433.77 0.11 0.17z"/>
    <path class="fil0" d="M316260.01 34411.86c816.28,-1960.46 2254.73,-3598.48 4093.16,-4662.52 2017.29,-1167.55 4382.52,-1577.51 6685.37,-1204.8 1519.74,245.99 2953.23,819.04 4081.75,1796.6 1051.41,910.53 1804.31,2144.72 2116.55,3542.32l16.98 15260.21 -4502.18 64.05 152.01 -8854.95c-1375.06,-1023.97 -3064.62,-1470.08 -4740.46,-1291.94 -1313.16,139.5 -2607.59,680.2 -3336.02,1818.75 -534.42,836.29 -683.18,1820.79 -372.59,2710 234.3,668.46 706.55,1221.12 1302.69,1604.02 1228.61,787.73 2701.12,774.4 4015.94,439.06 1248.02,-319.84 2431.21,-953.64 3429.72,-1909.31l589.48 2520.12c-2593.87,2848.01 -6487.78,3633.43 -9850.75,2379.24 -1261.91,-470.09 -2441.8,-1240.96 -3188.19,-2378.47 -849.63,-1293.32 -1062.71,-2919.94 -702.47,-4597.26 314.66,-1470.25 1086.36,-2730.5 2225.46,-3648.92 1068.55,-860.87 2427.14,-1385.64 3828.16,-1655.99 2203.58,-425.89 4480.3,-275.2 6608.15,436.36 354.51,-2040.82 -771.69,-4054.69 -2699.52,-4816.3 -648.07,-256.74 -1320.5,-346.91 -1986.42,-346.91 -717.18,0 -1430.23,104.28 -2109.22,335.88 -1574.14,537.56 -2889.9,1715.24 -3566.24,3318.76l-2091.25 -858.34 -0.11 0.33z"/>
   </g>
   <g id="_2514033574448">
    <rect class="fil1 str0" transform="matrix(0.110523 -0.110523 0.256735 0.256735 160561 24977.9)" width="5365.26" height="63786.62"/>
    <rect class="fil1 str0" transform="matrix(0.110523 0.110523 -0.256735 0.256735 176937 24384.9)" width="5365.26" height="63786.62"/>
   </g>
   <g>
    <path class="fil2" d="M12529.44 5547.64l121052.05 0c3676.53,0 5882.7,0 7353.89,614.22 2119.97,771.69 3790.35,2441.96 4561.66,4561.88 613.95,1470.91 613.95,3676.81 613.95,7353.89l0 29583.93c0,3676.81 0,5882.7 -613.95,7353.61 -771.31,2120.24 -2441.69,3790.35 -4561.66,4561.88 -1471.19,614.22 -3677.36,614.22 -7353.89,614.22l-121052.05 0c-3677.08,0 -5882.98,0 -7353.61,-614.22 -2120.24,-771.58 -3790.35,-2441.69 -4562.15,-4561.88 -613.67,-1470.91 -613.67,-3676.81 -613.67,-7353.61l0 -29583.93c0,-3677.08 0,-5882.98 613.67,-7353.89 771.97,-2119.97 2441.96,-3790.35 4562.15,-4561.88 1470.63,-614.22 3676.53,-614.22 7353.61,-614.22z"/>
    <g id="_2514033577616">
     <path class="fil3" d="M46094.47 29459.14l-4472.15 14477.77 -4407.44 0 -2573.86 -6692.04c-32.24,-96.4 -193.08,-643.33 -418.28,-1640.73 -96.68,643.6 -225.32,1222.61 -450.36,1705.21l-2573.86 6627.61 -4150.43 0 -4632.76 -14477.77 5179.96 0 1769.37 6627.61c64.16,225.32 160.89,836.57 321.72,1833.86 128.64,-804.32 257.29,-1415.68 418.12,-1833.86l2187.54 -6627.61 4311.31 0 2252.14 6595.37c96.4,289.53 257.29,900.89 450.36,1898.29 128.64,-932.97 257.29,-1576.57 353.69,-1962.5l1576.57 -6531.15 4858.07 0 0.28 -0.06z"/>
     <path class="fil3" d="M58835.28 39271.8l1319.01 3410.15c-1447.65,1093.96 -3346.1,1640.73 -5630.32,1640.73 -2380.78,0 -4278.79,-707.65 -5694.48,-2091.25 -1447.65,-1383.22 -2155.3,-3249.26 -2155.3,-5533.65 0,-2155.68 740,-3989.26 2187.54,-5437.19 1447.65,-1447.65 3313.86,-2187.54 5662.23,-2187.54 1930.53,0 3571.42,643.33 4954.86,1898.01 1383.22,1287.04 2058.9,2927.82 2058.9,4922.4 0,965.32 -96.4,1769.64 -289.53,2412.97l-9587.62 0c418.39,1319.28 1544.33,1994.69 3378.18,1994.69 1447.65,0 2702.5,-353.96 3796.46,-1029.53l0.06 0.22zm-4471.92 -6177.08c-1447.93,0 -2381.06,675.85 -2863.33,1994.85l5211.87 0c0,-547.2 -193.08,-997.56 -611.25,-1415.68 -418.12,-385.93 -997.29,-579 -1737.18,-579l-0.11 -0.17zm9587.4 6692.1l0 -18370.52 4826 0 0 16536.67c0,1254.58 257.29,1865.93 804.49,1865.93 289.53,0 707.65,-160.89 1254.85,-514.68l965.05 3667.55c-1093.96,900.89 -2509.43,1351.25 -4246.83,1351.25 -2412.97,0 -3603.39,-1512.14 -3603.39,-4536.08l-0.17 -0.11zm9941.3 4150.1l0 -22520.68 4826 0 0 14316.5 3957.35 -6273.65 6048.6 0 -4697.35 6531.15 5372.76 7946.62 -6177.08 0 -4504.11 -6917.08 0 6917.08 -4826 0 -0.17 0.06zm17694.84 0l0 -14477.77 4826 0 0 14477.77 -4826 0zm-418.12 -19464.49c0,-836.29 289.53,-1512.14 868.65,-1994.41 547.04,-482.61 1254.85,-740.28 2059.17,-740.28 740,0 1383.49,257.67 1930.26,740.28 546.76,514.57 804.49,1190.36 804.49,1994.41 0,900.89 -257.67,1608.81 -804.49,2123.5 -546.76,547.04 -1190.36,804.32 -1930.26,804.32 -836.57,0 -1544.33,-257.29 -2091.25,-772.08 -547.04,-514.96 -836.57,-1222.61 -836.57,-2155.68l0 -0.06zm9201.41 19464.49l0 -14477.77 4825.83 0 0 1126.21c965.32,-933.08 2155.68,-1383.49 3571.15,-1383.49 3925.11,0 5887.72,2026.66 5887.72,6112.76l0 8622.3 -4826 0 0 -7785.73c0,-804.32 -225.04,-1415.68 -643.22,-1833.86 -418.56,-418.12 -997.56,-611.25 -1737.57,-611.25 -836.29,0 -1576.29,321.72 -2252.14,997.29l0 9233.65 -4825.83 0 0.06 -0.11zm17019.27 -3088.38c0,-772.25 289.75,-1480.17 900.89,-2091.53 611.25,-611.25 1383.49,-932.86 2381.06,-932.86 868.65,0 1576.29,321.44 2155.46,932.86 579,611.25 868.92,1319.28 868.92,2091.53 0,868.65 -289.75,1640.73 -836.68,2283.94 -579,675.85 -1319.01,997.56 -2187.54,997.56 -997.56,0 -1769.64,-321.72 -2381.06,-965.32 -610.97,-643.6 -900.89,-1415.41 -900.89,-2316.3l-0.17 0.11z"/>
    </g>
   </g>
  </g>
 </g>
</svg>
